<svg width="24" height="25" viewBox="0 0 24 25" fill="none" xmlns="http://www.w3.org/2000/svg">
<mask id="mask0_8_415" style="mask-type:alpha" maskUnits="userSpaceOnUse" x="0" y="0" width="24" height="25">
<rect y="0.5" width="24" height="24" fill="#D9D9D9"/>
</mask>
<g mask="url(#mask0_8_415)">
<path d="M12 22.5C11.5667 22.5 11.175 22.3958 10.825 22.1875C10.475 21.9792 10.2 21.7 10 21.35C9.45 21.35 8.97917 21.1542 8.5875 20.7625C8.19583 20.3708 8 19.9 8 19.35V15.8C7.01667 15.15 6.22917 14.2917 5.6375 13.225C5.04583 12.1583 4.75 11 4.75 9.75C4.75 7.73333 5.45417 6.02083 6.8625 4.6125C8.27083 3.20417 9.98333 2.5 12 2.5C14.0167 2.5 15.7292 3.20417 17.1375 4.6125C18.5458 6.02083 19.25 7.73333 19.25 9.75C19.25 11.0333 18.9542 12.2 18.3625 13.25C17.7708 14.3 16.9833 15.15 16 15.8V19.35C16 19.9 15.8042 20.3708 15.4125 20.7625C15.0208 21.1542 14.55 21.35 14 21.35C13.8 21.7 13.525 21.9792 13.175 22.1875C12.825 22.3958 12.4333 22.5 12 22.5ZM10 19.35H14V18.45H10V19.35ZM10 17.45H14V16.5H10V17.45ZM9.8 14.5H11.25V11.8L9.05 9.6L10.1 8.55L12 10.45L13.9 8.55L14.95 9.6L12.75 11.8V14.5H14.2C15.1 14.0667 15.8333 13.4292 16.4 12.5875C16.9667 11.7458 17.25 10.8 17.25 9.75C17.25 8.28333 16.7417 7.04167 15.725 6.025C14.7083 5.00833 13.4667 4.5 12 4.5C10.5333 4.5 9.29167 5.00833 8.275 6.025C7.25833 7.04167 6.75 8.28333 6.75 9.75C6.75 10.8 7.03333 11.7458 7.6 12.5875C8.16667 13.4292 8.9 14.0667 9.8 14.5Z" fill="#0C3880"/>
</g>
</svg>
