<svg width="24" height="25" viewBox="0 0 24 25" fill="none" xmlns="http://www.w3.org/2000/svg">
<mask id="mask0_10_7" style="mask-type:alpha" maskUnits="userSpaceOnUse" x="0" y="0" width="24" height="25">
<rect y="0.5" width="24" height="24" fill="#D9D9D9"/>
</mask>
<g mask="url(#mask0_10_7)">
<path d="M8 14.5H16V13.95C16 13.2167 15.6333 12.625 14.9 12.175C14.1667 11.725 13.2 11.5 12 11.5C10.8 11.5 9.83333 11.725 9.1 12.175C8.36667 12.625 8 13.2167 8 13.95V14.5ZM12 10.5C12.55 10.5 13.0208 10.3042 13.4125 9.9125C13.8042 9.52083 14 9.05 14 8.5C14 7.95 13.8042 7.47917 13.4125 7.0875C13.0208 6.69583 12.55 6.5 12 6.5C11.45 6.5 10.9792 6.69583 10.5875 7.0875C10.1958 7.47917 10 7.95 10 8.5C10 9.05 10.1958 9.52083 10.5875 9.9125C10.9792 10.3042 11.45 10.5 12 10.5ZM2 22.5V4.5C2 3.95 2.19583 3.47917 2.5875 3.0875C2.97917 2.69583 3.45 2.5 4 2.5H20C20.55 2.5 21.0208 2.69583 21.4125 3.0875C21.8042 3.47917 22 3.95 22 4.5V16.5C22 17.05 21.8042 17.5208 21.4125 17.9125C21.0208 18.3042 20.55 18.5 20 18.5H6L2 22.5ZM5.15 16.5H20V4.5H4V17.625L5.15 16.5Z" fill="#0C3880"/>
</g>
</svg>
